<svg xmlns="http://www.w3.org/2000/svg" width="32" height="32" fill="none">
    <g stroke="#018762" stroke-linecap="round" stroke-linejoin="round" stroke-width="2" clip-path="url(#a)">
        <path
            d="M21.336 5.334H10.669a5.333 5.333 0 0 0-5.333 5.333v10.667a5.333 5.333 0 0 0 5.333 5.333h10.667a5.333 5.333 0 0 0 5.333-5.333V10.667a5.333 5.333 0 0 0-5.333-5.333Z" />
        <path d="M16 20a4 4 0 1 0 0-8 4 4 0 0 0 0 8ZM22 10v.001" />
    </g>
    <defs>
        <clipPath id="a">
            <path fill="#fff" d="M0 0h32v32H0z" />
        </clipPath>
    </defs>
</svg>
